<svg xmlns="http://www.w3.org/2000/svg" xmlns:xlink="http://www.w3.org/1999/xlink" viewBox="0 0 416.07 226.37"><defs><style>.cls-1{stroke:#9f3445;stroke-miterlimit:10;stroke-width:7.35px;fill:url(#Dégradé_sans_nom);}.cls-2{isolation:isolate;font-size:66px;fill:#fff;font-family:Kalam-Bold, Kalam;font-weight:700;}</style><linearGradient id="Dégradé_sans_nom" x1="172.22" y1="144.45" x2="582.02" y2="144.45" gradientTransform="matrix(-0.98, -0.2, -0.2, 0.98, 606.94, 34.29)" gradientUnits="userSpaceOnUse"><stop offset="0" stop-color="#e16b63"/><stop offset="1" stop-color="#993345"/></linearGradient></defs><title>bouton4</title><g id="Calque_2" data-name="Calque 2"><g id="Calque_1-2" data-name="Calque 1"><path class="cls-1" d="M394.8,49.82a27.45,27.45,0,0,1,17.6,26.1c-.6,41.9-5.2,144.4-42,146.7-37.6,2.2-239.7-45.8-312.6-63.6-9.7-2.3-10.3-15.6-1.3-19.4,7.6-2.6,15.6-4.7,22.1-3.8,12.4,1.8-36.3-26.5-70-45.3-8.4-4.7-5.4-17.6,4.1-18.3l110.1-6.6L70.4,37.42A4.49,4.49,0,0,1,73.2,29l52.2,8.7-9.3-17.2c-4.4-8,2.1-17.6,11.3-16.8C182.6,8.72,331.9,25,394.8,49.82Z"/><text class="cls-2" transform="translate(114.48 141.4)">étape 4</text></g></g></svg>