<svg xmlns="http://www.w3.org/2000/svg" xmlns:xlink="http://www.w3.org/1999/xlink" viewBox="0 0 442.22 205.57"><defs><style>.cls-1{stroke:#9f3445;stroke-miterlimit:10;stroke-width:4.64px;fill:url(#Dégradé_sans_nom);}.cls-2{isolation:isolate;font-size:66px;fill:#fff;font-family:Kalam-Bold, Kalam;font-weight:700;}</style><linearGradient id="Dégradé_sans_nom" x1="122.55" y1="409.89" x2="556.94" y2="409.89" gradientTransform="matrix(-0.99, 0.13, 0.14, 1.08, 493.12, -384.08)" gradientUnits="userSpaceOnUse"><stop offset="0" stop-color="#e16b63"/><stop offset="1" stop-color="#993345"/></linearGradient></defs><title>Fichier 1</title><g id="Calque_2" data-name="Calque 2"><g id="Calque_1-2" data-name="Calque 1"><path class="cls-1" d="M390.12,160.93l-378.9,42.3c-2.3.3-3.5-3.9-1.7-5.5l46.7-41.1-46.4-2.2C2.22,154-.48,140,6.22,136l38.3-22.4-24.2-4.5c-3.3-.6-5.1-5.9-3.3-9.4l20.6-37.9-32-1.3c-3.9-.2-4.6-8-.7-8.5l375.2-49.7c2.1-.3,3.1,3.7,1.2,4.9l-42.1,26.9,51-1.2c5-.1,6.4,9.6,1.6,11.1l-32.3,9.7L408,65.23c2.1.5,2.8,4.3,1,5.6l-38.8,30.1,37.2,7.9c2.9.6,3.8,6,1.2,7.7l-26.7,17.3,52.6,6.7c6.6.8,7.4,13.7.9,14.6Z"/><text class="cls-2" transform="translate(86.52 135.74)">étape 3</text></g></g></svg>