<svg xmlns="http://www.w3.org/2000/svg" xmlns:xlink="http://www.w3.org/1999/xlink" viewBox="0 0 416.36 210.73"><defs><style>.cls-1{stroke:#9e3344;stroke-miterlimit:10;stroke-width:7.34px;fill:url(#Dégradé_sans_nom);}.cls-2{fill:none;}.cls-3{isolation:isolate;font-size:66px;fill:#fff;font-family:Kalam-Bold, Kalam;font-weight:700;}</style><linearGradient id="Dégradé_sans_nom" x1="3.67" y1="95.32" x2="412.69" y2="95.32" gradientUnits="userSpaceOnUse"><stop offset="0" stop-color="#e16b63"/><stop offset="1" stop-color="#993244"/></linearGradient></defs><title>bouton1</title><g id="Calque_2" data-name="Calque 2"><g id="Calque_1-2" data-name="Calque 1"><path class="cls-1" d="M36.28,8.33a27.21,27.21,0,0,0-22.4,22c-7.7,41.1-23.5,142.3,12.1,151.8,36.3,9.5,243.5,2.6,318.4-.4,9.9-.4,13.2-13.2,5.1-18.7-7-4-14.3-7.7-20.9-8.1-12.5-.7,40.7-18.7,77.4-30.4,9.2-2.9,8.8-16.1-.4-18.7l-106.4-28.2L356,60.43a4.5,4.5,0,0,0-1.1-8.8l-52.8-1.8,12.5-15c5.9-7,1.5-17.6-7.7-18.7C252,10.13,102.68-3.47,36.28,8.33Z"/><rect class="cls-2" x="90.58" y="75.03" width="249" height="135.7"/><text class="cls-3" transform="translate(39.56 119.24)">étape 1</text></g></g></svg>