<svg xmlns="http://www.w3.org/2000/svg" xmlns:xlink="http://www.w3.org/1999/xlink" viewBox="0 0 435.13 194.9"><defs><style>.cls-1{stroke:#9f3445;stroke-miterlimit:10;stroke-width:4.57px;fill:url(#Dégradé_sans_nom);}.cls-2{isolation:isolate;font-size:66px;fill:#fff;font-family:Kalam-Bold, Kalam;font-weight:700;}</style><linearGradient id="Dégradé_sans_nom" x1="43.02" y1="262.67" x2="507.28" y2="262.67" gradientTransform="matrix(0.93, 0.08, 0.09, -1, -66.68, 337.15)" gradientUnits="userSpaceOnUse"><stop offset="0" stop-color="#e16b63"/><stop offset="1" stop-color="#993345"/></linearGradient></defs><title>bouton2</title><g id="Calque_2" data-name="Calque 2"><g id="Calque_1-2" data-name="Calque 1"><path class="cls-1" d="M53.74,6.21,430.94,47c2.3.2,2.6,4.5.4,5.6l-54.2,29.3,44.6,12c7.3,2,6.9,16-.5,18.3l-42.1,13.2,22.5,9.5c3.1,1.3,3.7,6.7,1.2,9.6l-28.1,31.7,30.8,8.1c3.8,1,2.8,8.6-1.1,8.3l-375.2-32.9c-2.1-.2-2.2-4.2-.2-4.9l46.7-16.6-49.8-9.8c-4.8-1-4.1-10.6.8-10.9l33.5-2.3-44.6-21.3c-1.9-.9-1.8-4.7.2-5.6L60,67.91l-34.4-15.5c-2.7-1.2-2.4-6.5.4-7.6L55.74,34,6,16.41c-6.2-2.2-4.2-14.7,2.2-14.1Z"/><text class="cls-2" transform="translate(96.09 122.07)">étape 2</text></g></g></svg>