<?xml version="1.0" encoding="utf-8"?>
<!-- Generator: Adobe Illustrator 22.1.0, SVG Export Plug-In . SVG Version: 6.00 Build 0)  -->
<svg version="1.1" id="Calque_1" xmlns="http://www.w3.org/2000/svg" xmlns:xlink="http://www.w3.org/1999/xlink" x="0px" y="0px"
	 viewBox="0 0 90 90" style="enable-background:new 0 0 90 90;" xml:space="preserve">
<style type="text/css">
	.st0{fill:#FFFFFF;}
</style>
<g>
	<path class="st0" d="M69,21.3H59l-5-8.6c-0.9-1.5-2.5-2.5-4.3-2.5h-8.8c-1.8,0-3.4,0.9-4.3,2.5l-5,8.6H21.5c-1.8,0-3.4,1-4.3,2.5
		l-4.4,7.6c-0.9,1.5-0.9,3.4,0,5l5,8.6l-6,10.4c-0.3,0.5-0.3,1,0,1.5L18.2,68c0.3,0.5,0.8,0.8,1.3,0.8h12.1l6,10.4
		c0.3,0.5,0.8,0.8,1.3,0.8h10.8c1.8,0,3.4-0.9,4.3-2.5l5-8.6h10c1.8,0,3.4-0.9,4.3-2.5l4.4-7.7c0.9-1.5,0.9-3.4,0-5l-5-8.6l5-8.6
		c0.9-1.5,0.9-3.4,0-5l-4.4-7.6C72.4,22.2,70.8,21.3,69,21.3z M20.4,65.7l-5.6-9.6l5.5-9.6h0.2c0.8,0,1.5-0.7,1.5-1.5
		s-0.7-1.5-1.5-1.5h-0.2l-5-8.6c-0.4-0.6-0.4-1.4,0-2l4.4-7.6c0.4-0.6,1-1,1.7-1h10.1l5.2,9.1c-1,1.3-1.6,3-1.8,4.7l0,0h-2.3
		c-3.4,0-6.2,2.3-6.9,5.5h-0.9c-0.8,0-1.5,0.7-1.5,1.5s0.7,1.5,1.5,1.5h0.8c0.4,3.5,3.4,6.3,7.1,6.3h2.5l0.1,0.2l0,0
		c0.4,1.2,1,2.3,1.7,3.2l-5.5,9.5H20.4V65.7z M35,41.1v8.7h-2.2c-2.3,0-4.1-1.9-4.1-4.1v-0.5c0-2.3,1.9-4.1,4.1-4.1H35z M75.1,55.1
		c0.3,0.6,0.3,1.4,0,2l-4.4,7.6c-0.3,0.6-1,1-1.7,1H59l-1.9-3.2c-0.4-0.7-1.3-1-2-0.6c-0.1,0.1-0.2,0.2-0.3,0.2
		c-0.5,0.5-0.6,1.2-0.2,1.8l1.9,3.2l-5,8.6c-0.3,0.6-1,1-1.7,1h-10l-5.5-9.6l5.1-8.9c1.3,0.9,2.8,1.4,4.4,1.6v2.8
		c0,0.8,0.7,1.5,1.5,1.5s1.5-0.7,1.5-1.5V60c1.7-0.2,3.2-0.8,4.5-1.7l1.1,1.8c0.3,0.5,0.8,0.8,1.3,0.8c0.3,0,0.5-0.1,0.8-0.2
		c0.7-0.4,1-1.3,0.5-2l-1.4-2.5c0.6-0.8,1.1-1.7,1.5-2.6l0.1-0.2c0,0,0,0,0-0.1l0.3-0.5h2.4c3.6,0,6.7-2.8,7.1-6.3h5.2L75.1,55.1z
		 M40.3,43.9H38V42h14.6v1.9h-8.2c-0.8,0-1.5,0.7-1.5,1.5s0.7,1.5,1.5,1.5h8.2v1.9H38v-1.9h2.4c0.8,0,1.5-0.7,1.5-1.5
		C41.8,44.6,41.2,43.9,40.3,43.9z M38,39c0.1-3.8,3.2-6.8,7-6.8h0.7c3.8,0,6.9,3,7,6.8H38z M52.4,51.8c0,0.2-0.1,0.3-0.1,0.5
		l-1.4,2.4c-1.3,1.5-3.2,2.4-5.2,2.4H45c-3.2,0-6-2.2-6.8-5.2C38.2,51.8,52.4,51.8,52.4,51.8z M55.6,49.8v-8.7h2.2
		c2.3,0,4.1,1.9,4.1,4.1v0.5c0,2.3-1.9,4.1-4.1,4.1C57.8,49.8,55.6,49.8,55.6,49.8z M75.1,34.9l-5,8.6h-5.4
		c-0.8-3.1-3.6-5.5-6.9-5.5h-2l-0.5-0.8c-0.3-1.4-0.9-2.7-1.7-3.8c0.3-0.6,0.8-1.4,1.3-2.3l0.5-0.9c0.4-0.7,0.2-1.6-0.5-2
		c-0.2-0.1-0.5-0.2-0.8-0.2c-0.5,0-1,0.3-1.3,0.8l-0.5,0.9c-0.3,0.6-0.6,1.1-0.9,1.5c-0.5-0.3-0.9-0.6-1.4-0.9l1-2.6
		c0.3-0.8-0.1-1.6-0.8-1.9c-0.8-0.3-1.6,0.1-1.9,0.9l-1.1,2.7c-0.5-0.1-1.1-0.2-1.7-0.2h-0.7c-0.6,0-1.1,0.1-1.7,0.2L42,26.7
		c-0.3-0.8-1.2-1.1-1.9-0.9c-0.8,0.3-1.2,1.2-0.8,1.9l1,2.6c-0.5,0.2-0.9,0.5-1.3,0.8l-4.8-8.4l5-8.6c0.3-0.6,1-1,1.7-1h8.8
		c0.7,0,1.3,0.4,1.7,1l5,8.6L55,25.3c-0.3,0.6-0.2,1.3,0.2,1.8c0.1,0.1,0.2,0.2,0.3,0.2c0.2,0.1,0.5,0.2,0.8,0.2
		c0.5,0,1-0.3,1.3-0.7l1.4-2.5h10c0.7,0,1.3,0.4,1.7,1l4.4,7.6C75.4,33.5,75.4,34.3,75.1,34.9z"/>
	<path class="st0" d="M45,0C20.2,0,0,20.2,0,45s20.2,45,45,45s45-20.2,45-45S69.8,0,45,0z M45,87C21.8,87,3,68.2,3,45S21.8,3,45,3
		s42,18.8,42,42S68.2,87,45,87z"/>
</g>
</svg>
